<?xml version="1.0" encoding="UTF-8" standalone="no"?>
<!DOCTYPE svg PUBLIC "-//W3C//DTD SVG 1.1//EN"
 "http://www.w3.org/Graphics/SVG/1.1/DTD/svg11.dtd">
<!-- Generated by graphviz version 12.2.1 (20241206.2353)
 -->
<!-- Title: G Pages: 1 -->
<svg width="1860pt" height="58pt"
 viewBox="0.00 0.00 1859.62 58.00" xmlns="http://www.w3.org/2000/svg" xmlns:xlink="http://www.w3.org/1999/xlink">
<g id="graph0" class="graph" transform="scale(1 1) rotate(0) translate(4 54)">
<title>G</title>
<polygon fill="white" stroke="none" points="-4,4 -4,-54 1855.62,-54 1855.62,4 -4,4"/>
<!-- bb0 -->
<g id="node1" class="node">
<title>bb0</title>
<polygon fill="none" stroke="black" points="0,-0.5 0,-49.5 1328.25,-49.5 1328.25,-0.5 0,-0.5"/>
<text text-anchor="middle" x="664.12" y="-32.2" font-family="Times,serif" font-size="14.00">BB0</text>
<polyline fill="none" stroke="black" points="0,-25 1328.25,-25"/>
<text text-anchor="middle" x="50.38" y="-7.7" font-family="Times,serif" font-size="14.00">const #0 &#45;&gt; %1</text>
<polyline fill="none" stroke="black" points="100.75,-0.5 100.75,-25"/>
<text text-anchor="middle" x="151.12" y="-7.7" font-family="Times,serif" font-size="14.00">const #0 &#45;&gt; %2</text>
<polyline fill="none" stroke="black" points="201.5,-0.5 201.5,-25"/>
<text text-anchor="middle" x="251.88" y="-7.7" font-family="Times,serif" font-size="14.00">const #5 &#45;&gt; %3</text>
<polyline fill="none" stroke="black" points="302.25,-0.5 302.25,-25"/>
<text text-anchor="middle" x="352.62" y="-7.7" font-family="Times,serif" font-size="14.00">const #3 &#45;&gt; %4</text>
<polyline fill="none" stroke="black" points="403,-0.5 403,-25"/>
<text text-anchor="middle" x="453.38" y="-7.7" font-family="Times,serif" font-size="14.00">const #2 &#45;&gt; %5</text>
<polyline fill="none" stroke="black" points="503.75,-0.5 503.75,-25"/>
<text text-anchor="middle" x="554.12" y="-7.7" font-family="Times,serif" font-size="14.00">const #6 &#45;&gt; %6</text>
<polyline fill="none" stroke="black" points="604.5,-0.5 604.5,-25"/>
<text text-anchor="middle" x="658.25" y="-7.7" font-family="Times,serif" font-size="14.00">const #11 &#45;&gt; %7</text>
<polyline fill="none" stroke="black" points="712,-0.5 712,-25"/>
<text text-anchor="middle" x="762.38" y="-7.7" font-family="Times,serif" font-size="14.00">const #1 &#45;&gt; %8</text>
<polyline fill="none" stroke="black" points="812.75,-0.5 812.75,-25"/>
<text text-anchor="middle" x="866.5" y="-7.7" font-family="Times,serif" font-size="14.00">const #12 &#45;&gt; %9</text>
<polyline fill="none" stroke="black" points="920.25,-0.5 920.25,-25"/>
<text text-anchor="middle" x="977.38" y="-7.7" font-family="Times,serif" font-size="14.00">const #10 &#45;&gt; %10</text>
<polyline fill="none" stroke="black" points="1034.5,-0.5 1034.5,-25"/>
<text text-anchor="middle" x="1103.25" y="-7.7" font-family="Times,serif" font-size="14.00">cmp %7 %10 &#45;&gt; %11</text>
<polyline fill="none" stroke="black" points="1172,-0.5 1172,-25"/>
<text text-anchor="middle" x="1250.12" y="-7.7" font-family="Times,serif" font-size="14.00">branch %11 ? BB1 : BB2</text>
</g>
<!-- bb1 -->
<g id="node2" class="node">
<title>bb1</title>
<polygon fill="none" stroke="black" points="1346.62,-0.5 1346.62,-49.5 1547.62,-49.5 1547.62,-0.5 1346.62,-0.5"/>
<text text-anchor="middle" x="1447.12" y="-32.2" font-family="Times,serif" font-size="14.00">BB1</text>
<polyline fill="none" stroke="black" points="1346.62,-25 1547.62,-25"/>
<text text-anchor="middle" x="1379.75" y="-7.7" font-family="Times,serif" font-size="14.00">write %9</text>
<polyline fill="none" stroke="black" points="1412.88,-0.5 1412.88,-25"/>
<text text-anchor="middle" x="1443.75" y="-7.7" font-family="Times,serif" font-size="14.00">writeNL</text>
<polyline fill="none" stroke="black" points="1474.62,-0.5 1474.62,-25"/>
<text text-anchor="middle" x="1511.12" y="-7.7" font-family="Times,serif" font-size="14.00">jump BB3</text>
</g>
<!-- bb2 -->
<g id="node3" class="node">
<title>bb2</title>
<polygon fill="none" stroke="black" points="1565.62,-0.5 1565.62,-49.5 1766.62,-49.5 1766.62,-0.5 1565.62,-0.5"/>
<text text-anchor="middle" x="1666.12" y="-32.2" font-family="Times,serif" font-size="14.00">BB2</text>
<polyline fill="none" stroke="black" points="1565.62,-25 1766.62,-25"/>
<text text-anchor="middle" x="1598.75" y="-7.7" font-family="Times,serif" font-size="14.00">write %7</text>
<polyline fill="none" stroke="black" points="1631.88,-0.5 1631.88,-25"/>
<text text-anchor="middle" x="1662.75" y="-7.7" font-family="Times,serif" font-size="14.00">writeNL</text>
<polyline fill="none" stroke="black" points="1693.62,-0.5 1693.62,-25"/>
<text text-anchor="middle" x="1730.12" y="-7.7" font-family="Times,serif" font-size="14.00">jump BB3</text>
</g>
<!-- bb3 -->
<g id="node4" class="node">
<title>bb3</title>
<polygon fill="none" stroke="black" points="1784.62,-0.5 1784.62,-49.5 1851.62,-49.5 1851.62,-0.5 1784.62,-0.5"/>
<text text-anchor="middle" x="1818.12" y="-32.2" font-family="Times,serif" font-size="14.00">BB3</text>
<polyline fill="none" stroke="black" points="1784.62,-25 1851.62,-25"/>
<text text-anchor="middle" x="1818.12" y="-7.7" font-family="Times,serif" font-size="14.00">&lt;empty&gt;</text>
</g>
</g>
</svg>
